<svg xmlns="http://www.w3.org/2000/svg" viewBox="0 0 48 48" fill="none" aria-hidden="true">
  <circle cx="24" cy="24" r="22" fill="#4B92DB"/>
  <ellipse cx="24" cy="24" rx="10" ry="22" stroke="#FFFFFF" stroke-width="1.2"/>
  <path d="M4 24h40M6 16h36M6 32h36" stroke="#FFFFFF" stroke-width="1"/>
  <path d="M8 8c4 6 10 10 16 10s12-4 16-10M8 40c4-6 10-10 16-10s12 4 16 10" stroke="#FFFFFF" stroke-width="1.2" stroke-linecap="round"/>
  <path d="M2 24c3-8 9-14 16-16M46 24c-3-8-9-14-16-16" stroke="#FFFFFF" stroke-width="1"/>
  <path d="M6 38c2-3 5-5 8-6.5M42 38c-2-3-5-5-8-6.5" stroke="#6BBF59" stroke-width="1.5" stroke-linecap="round"/>
  <path d="M8 10c2 3 5 5 8 6.5M40 10c-2 3-5 5-8 6.5" stroke="#6BBF59" stroke-width="1.5" stroke-linecap="round"/>
</svg>
